# 3ds Max Wavefront OBJ Exporter v0.99 - (c)2007 guruware
# File Created: 21.03.2021 16:45:57

mtllib SM_Car_Amazon_01.mtl

#
# object SM_Car_Amazon_01
#

v  -105.0000 33.5460 335.0000
v  -105.0000 33.5460 -50.6561
v  105.0000 33.5460 -50.6561
v  105.0000 33.5460 335.0000
v  -105.0000 280.0000 335.0000
v  105.0000 280.0000 335.0000
v  105.0000 280.0000 -50.6561
v  -105.0000 280.0000 -50.6561
v  105.0000 134.3105 335.0000
v  -105.0000 134.3105 335.0000
v  105.0000 134.3105 -50.6561
v  105.0000 33.5460 -335.0000
v  -105.0000 33.5460 -335.0000
v  -105.0000 134.3105 -335.0000
v  105.0000 134.3105 -335.0000
v  -105.0000 134.3105 -50.6561
v  105.0000 235.5647 -102.7330
v  -105.0000 235.5647 -102.7329
v  105.0000 235.5647 335.0000
v  -105.0000 235.5647 335.0000
v  105.0000 235.5647 -50.6561
v  -105.0000 168.1332 -221.3998
v  105.0000 168.1332 -221.3998
v  -105.0000 235.5647 -50.6561
v  -82.7278 75.3881 -186.6612
v  -82.7278 68.6158 -174.9313
v  -82.7278 58.2400 -166.2250
v  -82.7278 45.5123 -161.5925
v  -82.7278 31.9678 -161.5925
v  -82.7278 19.2401 -166.2250
v  -82.7278 8.8643 -174.9313
v  -82.7278 2.0920 -186.6612
v  -82.7278 -0.2599 -200.0000
v  -82.7278 2.0921 -213.3388
v  -82.7278 8.8643 -225.0687
v  -82.7278 19.2401 -233.7750
v  -82.7278 31.9678 -238.4075
v  -82.7278 45.5123 -238.4075
v  -82.7278 58.2401 -233.7750
v  -82.7278 68.6158 -225.0687
v  -82.7278 75.3881 -213.3388
v  -82.7278 77.7401 -200.0000
v  -110.7278 75.3881 -213.3388
v  -110.7278 77.7401 -200.0000
v  -110.7278 68.6158 -225.0687
v  -110.7278 58.2401 -233.7750
v  -110.7278 45.5123 -238.4075
v  -110.7278 31.9678 -238.4075
v  -110.7278 19.2401 -233.7750
v  -110.7278 8.8643 -225.0687
v  -110.7278 2.0921 -213.3388
v  -110.7278 -0.2599 -200.0000
v  -110.7278 2.0920 -186.6612
v  -110.7278 8.8643 -174.9313
v  -110.7278 19.2400 -166.2250
v  -110.7278 31.9678 -161.5925
v  -110.7278 45.5123 -161.5925
v  -110.7278 58.2400 -166.2250
v  -110.7278 68.6158 -174.9313
v  -110.7278 75.3881 -186.6612
v  82.7278 75.3881 -213.3388
v  82.7278 68.6158 -225.0687
v  82.7278 58.2401 -233.7750
v  82.7278 45.5123 -238.4075
v  82.7278 31.9678 -238.4075
v  82.7278 19.2401 -233.7750
v  82.7278 8.8643 -225.0687
v  82.7278 2.0921 -213.3388
v  82.7278 -0.2599 -200.0000
v  82.7278 2.0921 -186.6612
v  82.7278 8.8643 -174.9313
v  82.7278 19.2401 -166.2250
v  82.7278 31.9678 -161.5925
v  82.7278 45.5123 -161.5925
v  82.7278 58.2401 -166.2250
v  82.7278 68.6158 -174.9313
v  82.7278 75.3881 -186.6612
v  82.7278 77.7401 -200.0000
v  110.7278 75.3881 -213.3388
v  110.7278 77.7401 -200.0000
v  110.7278 68.6158 -225.0687
v  110.7278 58.2401 -233.7750
v  110.7278 45.5123 -238.4075
v  110.7278 31.9678 -238.4075
v  110.7278 19.2401 -233.7750
v  110.7278 8.8643 -225.0687
v  110.7278 2.0921 -213.3388
v  110.7278 -0.2599 -200.0000
v  110.7278 2.0921 -186.6612
v  110.7278 8.8643 -174.9313
v  110.7278 19.2401 -166.2250
v  110.7278 31.9678 -161.5925
v  110.7278 45.5123 -161.5925
v  110.7278 58.2401 -166.2250
v  110.7278 68.6158 -174.9313
v  110.7278 75.3881 -186.6612
v  -82.7278 75.3881 243.3720
v  -82.7278 68.6158 255.1019
v  -82.7278 58.2400 263.8082
v  -82.7278 45.5123 268.4407
v  -82.7278 31.9678 268.4407
v  -82.7278 19.2401 263.8082
v  -82.7278 8.8643 255.1019
v  -82.7278 2.0920 243.3720
v  -82.7278 -0.2599 230.0332
v  -82.7278 2.0921 216.6944
v  -82.7278 8.8643 204.9645
v  -82.7278 19.2401 196.2582
v  -82.7278 31.9678 191.6257
v  -82.7278 45.5123 191.6257
v  -82.7278 58.2401 196.2582
v  -82.7278 68.6158 204.9645
v  -82.7278 75.3881 216.6944
v  -82.7278 77.7401 230.0332
v  -110.7278 75.3881 216.6944
v  -110.7278 77.7401 230.0332
v  -110.7278 68.6158 204.9645
v  -110.7278 58.2401 196.2582
v  -110.7278 45.5123 191.6257
v  -110.7278 31.9678 191.6257
v  -110.7278 19.2401 196.2582
v  -110.7278 8.8643 204.9645
v  -110.7278 2.0921 216.6944
v  -110.7278 -0.2599 230.0332
v  -110.7278 2.0920 243.3720
v  -110.7278 8.8643 255.1019
v  -110.7278 19.2400 263.8082
v  -110.7278 31.9678 268.4407
v  -110.7278 45.5123 268.4407
v  -110.7278 58.2400 263.8082
v  -110.7278 68.6158 255.1019
v  -110.7278 75.3881 243.3720
v  82.7278 75.3881 216.6944
v  82.7278 68.6158 204.9645
v  82.7278 58.2401 196.2582
v  82.7278 45.5123 191.6257
v  82.7278 31.9678 191.6257
v  82.7278 19.2401 196.2582
v  82.7278 8.8643 204.9645
v  82.7278 2.0921 216.6944
v  82.7278 -0.2599 230.0332
v  82.7278 2.0921 243.3720
v  82.7278 8.8643 255.1019
v  82.7278 19.2401 263.8082
v  82.7278 31.9678 268.4407
v  82.7278 45.5123 268.4407
v  82.7278 58.2401 263.8082
v  82.7278 68.6158 255.1019
v  82.7278 75.3881 243.3720
v  82.7278 77.7401 230.0332
v  110.7278 75.3881 216.6944
v  110.7278 77.7401 230.0332
v  110.7278 68.6158 204.9645
v  110.7278 58.2401 196.2582
v  110.7278 45.5123 191.6257
v  110.7278 31.9678 191.6257
v  110.7278 19.2401 196.2582
v  110.7278 8.8643 204.9645
v  110.7278 2.0921 216.6944
v  110.7278 -0.2599 230.0332
v  110.7278 2.0921 243.3720
v  110.7278 8.8643 255.1019
v  110.7278 19.2401 263.8082
v  110.7278 31.9678 268.4407
v  110.7278 45.5123 268.4407
v  110.7278 58.2401 263.8082
v  110.7278 68.6158 255.1019
v  110.7278 75.3881 243.3720
# 168 vertices

vn 0.0000 -1.0000 -0.0000
vn 0.0000 1.0000 -0.0000
vn -0.0000 0.9383 -0.3459
vn 0.0000 0.0000 1.0000
vn 1.0000 0.0000 -0.0000
vn 0.0000 0.0000 -1.0000
vn 0.0000 0.5978 -0.8017
vn -1.0000 0.0000 -0.0000
vn -0.0000 0.8188 -0.5741
vn 0.0000 0.9584 -0.2854
vn -0.0000 0.8694 -0.4940
vn 0.0000 1.0000 0.0000
vn -0.0000 0.9397 -0.3420
vn -0.0000 0.7660 -0.6428
vn -0.0000 0.5000 -0.8660
vn 0.0000 0.1736 -0.9848
vn 0.0000 -0.1736 -0.9848
vn 0.0000 -0.5000 -0.8660
vn 0.0000 -0.7660 -0.6428
vn 0.0000 -0.9397 -0.3420
vn 0.0000 -0.9397 0.3420
vn 0.0000 -0.7660 0.6428
vn 0.0000 -0.5000 0.8660
vn 0.0000 -0.1736 0.9848
vn 0.0000 0.1736 0.9848
vn -0.0000 0.5000 0.8660
vn -0.0000 0.7660 0.6428
vn -0.0000 0.9397 0.3420
vn 0.0000 0.9397 -0.3420
vn 0.0000 0.7660 -0.6428
vn 0.0000 0.5000 -0.8660
vn 0.0000 0.5000 0.8660
vn 0.0000 0.7660 0.6428
vn 0.0000 0.9397 0.3420
# 34 vertex normals

vt 1.0000 0.0000 0.0000
vt 1.0000 0.5756 0.0000
vt 0.0000 0.5756 0.0000
vt 0.0000 0.0000 0.0000
vt 1.0000 0.4797 0.0000
vt 0.0000 0.4797 0.0000
vt 0.5756 0.0000 0.0000
vt 0.5756 0.4797 0.0000
vt 0.4244 0.0000 0.0000
vt 0.4244 0.4797 0.0000
vt 1.0000 1.0000 0.0000
vt 0.0000 1.0000 0.0000
vt 1.0000 0.7050 0.0000
vt 0.0000 0.7050 0.0000
vt 1.0000 0.8413 0.0000
vt 0.0000 0.8413 0.0000
vt 0.5756 0.8413 0.0000
vt 0.4244 0.8413 0.0000
vt 0.2950 1.0000 0.0000
vt 0.7050 1.0000 0.0000
vt 0.5756 1.0000 0.0000
vt 0.4244 1.0000 0.0000
vt 0.3400 0.0000 0.0000
vt 0.1953 0.0000 -0.3473
vt 0.0874 0.0000 -0.6527
vt 0.0292 0.0000 -0.8794
vt 0.0278 0.0000 -1.0000
vt 0.0833 0.0000 -1.0000
vt 0.1891 0.0000 -0.8794
vt 0.3325 0.0000 -0.6527
vt 0.4960 0.0000 -0.3473
vt 0.6600 0.0000 -0.0000
vt 0.8047 0.0000 0.3473
vt 0.9126 0.0000 0.6527
vt 0.9708 0.0000 0.8794
vt 0.9722 0.0000 1.0000
vt 0.9167 0.0000 1.0000
vt 0.8611 0.0000 1.0000
vt 0.8056 0.0000 1.0000
vt 0.7500 0.0000 1.0000
vt 0.8056 1.0000 1.0000
vt 0.7500 1.0000 1.0000
vt 0.8611 1.0000 1.0000
vt 0.9167 1.0000 1.0000
vt 0.9722 1.0000 1.0000
vt -0.0278 0.0000 1.0000
vt 0.0278 0.0000 1.0000
vt 0.0278 1.0000 1.0000
vt -0.0278 1.0000 1.0000
vt 0.0833 0.0000 1.0000
vt 0.0833 1.0000 1.0000
vt 0.1389 0.0000 1.0000
vt 0.1389 1.0000 1.0000
vt 0.1944 0.0000 1.0000
vt 0.1944 1.0000 1.0000
vt 0.2500 0.0000 1.0000
vt 0.2500 1.0000 1.0000
vt 0.3056 0.0000 1.0000
vt 0.3056 1.0000 1.0000
vt 0.3611 0.0000 1.0000
vt 0.3611 1.0000 1.0000
vt 0.4167 0.0000 1.0000
vt 0.4167 1.0000 1.0000
vt 0.4722 0.0000 1.0000
vt 0.4722 1.0000 1.0000
vt 0.5278 0.0000 1.0000
vt 0.5278 1.0000 1.0000
vt 0.5833 0.0000 1.0000
vt 0.5833 1.0000 1.0000
vt 0.6389 0.0000 1.0000
vt 0.6389 1.0000 1.0000
vt 0.6944 0.0000 1.0000
vt 0.6944 1.0000 1.0000
vt 0.9708 1.0000 0.8794
vt 0.9126 1.0000 0.6527
vt 0.8047 1.0000 0.3473
vt 0.6600 1.0000 -0.0000
vt 0.4960 1.0000 -0.3473
vt 0.3325 1.0000 -0.6527
vt 0.1891 1.0000 -0.8794
vt 0.0833 1.0000 -1.0000
vt 0.0278 1.0000 -1.0000
vt 0.0292 1.0000 -0.8794
vt 0.0874 1.0000 -0.6527
vt 0.1953 1.0000 -0.3473
vt 0.6600 0.0000 0.0000
vt 0.3400 1.0000 -0.0000
# 87 texture coords

o SM_Car_Amazon_01
g SM_Car_Amazon_01
usemtl wire_213154229
s 2
f 1/1/1 2/2/1 3/3/1 4/4/1 
s 4
f 5/4/2 6/1/2 7/2/3 8/3/3 
s 8
f 1/4/4 4/1/4 9/5/4 10/6/4 
s 16
f 4/4/5 3/7/5 11/8/5 9/6/5 
s 32
f 12/4/6 13/1/6 14/5/7 15/6/7 
s 64
f 13/4/8 2/9/8 16/10/8 14/6/8 
s 2
f 2/2/1 13/11/1 12/12/1 3/3/1 
s 4
f 7/2/3 17/13/9 18/14/9 8/3/3 
s 16
f 3/7/5 12/1/5 15/5/5 11/8/5 
s 64
f 2/9/8 1/1/8 10/5/8 16/10/8 
s 8
f 9/5/4 19/15/4 20/16/4 10/6/4 
s 16
f 11/8/5 21/17/5 19/16/5 9/6/5 
s 32
f 14/5/7 22/11/10 23/12/10 15/6/7 
s 64
f 16/10/8 22/12/8 14/6/8 
s 16
f 15/5/5 23/11/5 11/8/5 
s 64
f 10/5/8 20/15/8 24/18/8 16/10/8 
f 16/10/8 24/18/8 18/19/8 22/12/8 
s 16
f 23/11/5 17/20/5 21/17/5 11/8/5 
s 4
f 17/13/9 23/11/11 22/12/11 18/14/9 
s 8
f 19/15/4 6/11/4 5/12/4 20/16/4 
s 16
f 21/17/5 7/21/5 6/12/5 19/16/5 
s 64
f 20/15/8 5/11/8 8/22/8 24/18/8 
f 24/18/8 8/22/8 18/19/8 
s 16
f 17/20/5 7/21/5 21/17/5 
s 1
f 25/23/5 26/24/5 27/25/5 28/26/5 29/27/5 30/28/5 31/29/5 32/30/5 33/31/5 34/32/5 35/33/5 36/34/5 37/35/5 38/36/5 39/37/5 40/38/5 41/39/5 42/40/5 
s 8
f 42/40/12 41/39/13 43/41/13 44/42/12 
f 41/39/13 40/38/14 45/43/14 43/41/13 
f 40/38/14 39/37/15 46/44/15 45/43/14 
f 39/37/15 38/36/16 47/45/16 46/44/15 
f 38/46/16 37/47/17 48/48/17 47/49/16 
f 37/47/17 36/50/18 49/51/18 48/48/17 
f 36/50/18 35/52/19 50/53/19 49/51/18 
f 35/52/19 34/54/20 51/55/20 50/53/19 
f 34/54/20 33/56/1 52/57/1 51/55/20 
f 33/56/1 32/58/21 53/59/21 52/57/1 
f 32/58/21 31/60/22 54/61/22 53/59/21 
f 31/60/22 30/62/23 55/63/23 54/61/22 
f 30/62/23 29/64/24 56/65/24 55/63/23 
f 29/64/24 28/66/25 57/67/25 56/65/24 
f 28/66/25 27/68/26 58/69/26 57/67/25 
f 27/68/26 26/70/27 59/71/27 58/69/26 
f 26/70/27 25/72/28 60/73/28 59/71/27 
f 25/72/28 42/40/12 44/42/12 60/73/28 
s 1
f 60/73/8 44/42/8 43/41/8 45/43/8 46/44/8 47/45/8 48/74/8 49/75/8 50/76/8 51/77/8 52/78/8 53/79/8 54/80/8 55/81/8 56/82/8 57/83/8 58/84/8 59/85/8 
f 61/39/8 62/38/8 63/37/8 64/36/8 65/35/8 66/34/8 67/33/8 68/86/8 69/31/8 70/30/8 71/29/8 72/28/8 73/27/8 74/26/8 75/25/8 76/24/8 77/72/8 78/40/8 
s 8
f 79/41/29 61/39/29 78/40/2 80/42/2 
f 81/43/30 62/38/30 61/39/29 79/41/29 
f 82/44/31 63/37/31 62/38/30 81/43/30 
f 83/45/16 64/36/16 63/37/31 82/44/31 
f 84/48/17 65/47/17 64/46/16 83/49/16 
f 85/51/18 66/50/18 65/47/17 84/48/17 
f 86/53/19 67/52/19 66/50/18 85/51/18 
f 87/55/20 68/54/20 67/52/19 86/53/19 
f 88/57/1 69/56/1 68/54/20 87/55/20 
f 89/59/21 70/58/21 69/56/1 88/57/1 
f 90/61/22 71/60/22 70/58/21 89/59/21 
f 91/63/23 72/62/23 71/60/22 90/61/22 
f 92/65/24 73/64/24 72/62/23 91/63/23 
f 93/67/25 74/66/25 73/64/24 92/65/24 
f 94/69/32 75/68/32 74/66/25 93/67/25 
f 95/71/33 76/70/33 75/68/32 94/69/32 
f 96/73/34 77/72/34 76/70/33 95/71/33 
f 80/42/2 78/40/2 77/72/34 96/73/34 
s 1
f 80/42/5 96/87/5 95/85/5 94/84/5 93/83/5 92/82/5 91/81/5 90/80/5 89/79/5 88/78/5 87/77/5 86/76/5 85/75/5 84/74/5 83/45/5 82/44/5 81/43/5 79/41/5 
f 97/23/5 98/24/5 99/25/5 100/26/5 101/27/5 102/28/5 103/29/5 104/30/5 105/31/5 106/32/5 107/33/5 108/34/5 109/35/5 110/36/5 111/37/5 112/38/5 113/39/5 114/40/5 
s 8
f 114/40/12 113/39/13 115/41/13 116/42/12 
f 113/39/13 112/38/14 117/43/14 115/41/13 
f 112/38/14 111/37/15 118/44/15 117/43/14 
f 111/37/15 110/36/16 119/45/16 118/44/15 
f 110/46/16 109/47/17 120/48/17 119/49/16 
f 109/47/17 108/50/18 121/51/18 120/48/17 
f 108/50/18 107/52/19 122/53/19 121/51/18 
f 107/52/19 106/54/20 123/55/20 122/53/19 
f 106/54/20 105/56/1 124/57/1 123/55/20 
f 105/56/1 104/58/21 125/59/21 124/57/1 
f 104/58/21 103/60/22 126/61/22 125/59/21 
f 103/60/22 102/62/23 127/63/23 126/61/22 
f 102/62/23 101/64/24 128/65/24 127/63/23 
f 101/64/24 100/66/25 129/67/25 128/65/24 
f 100/66/25 99/68/26 130/69/26 129/67/25 
f 99/68/26 98/70/27 131/71/27 130/69/26 
f 98/70/27 97/72/28 132/73/28 131/71/27 
f 97/72/28 114/40/12 116/42/12 132/73/28 
s 1
f 132/73/8 116/42/8 115/41/8 117/43/8 118/44/8 119/45/8 120/74/8 121/75/8 122/76/8 123/77/8 124/78/8 125/79/8 126/80/8 127/81/8 128/82/8 129/83/8 130/84/8 131/85/8 
f 133/39/8 134/38/8 135/37/8 136/36/8 137/35/8 138/34/8 139/33/8 140/86/8 141/31/8 142/30/8 143/29/8 144/28/8 145/27/8 146/26/8 147/25/8 148/24/8 149/72/8 150/40/8 
s 8
f 151/41/29 133/39/29 150/40/2 152/42/2 
f 153/43/30 134/38/30 133/39/29 151/41/29 
f 154/44/31 135/37/31 134/38/30 153/43/30 
f 155/45/16 136/36/16 135/37/31 154/44/31 
f 156/48/17 137/47/17 136/46/16 155/49/16 
f 157/51/18 138/50/18 137/47/17 156/48/17 
f 158/53/19 139/52/19 138/50/18 157/51/18 
f 159/55/20 140/54/20 139/52/19 158/53/19 
f 160/57/1 141/56/1 140/54/20 159/55/20 
f 161/59/21 142/58/21 141/56/1 160/57/1 
f 162/61/22 143/60/22 142/58/21 161/59/21 
f 163/63/23 144/62/23 143/60/22 162/61/22 
f 164/65/24 145/64/24 144/62/23 163/63/23 
f 165/67/25 146/66/25 145/64/24 164/65/24 
f 166/69/32 147/68/32 146/66/25 165/67/25 
f 167/71/33 148/70/33 147/68/32 166/69/32 
f 168/73/34 149/72/34 148/70/33 167/71/33 
f 152/42/2 150/40/2 149/72/34 168/73/34 
s 1
f 152/42/5 168/87/5 167/85/5 166/84/5 165/83/5 164/82/5 163/81/5 162/80/5 161/79/5 160/78/5 159/77/5 158/76/5 157/75/5 156/74/5 155/45/5 154/44/5 153/43/5 151/41/5 
# 100 polygons - 4 triangles

