# 3ds Max Wavefront OBJ Exporter v0.99 - (c)2007 guruware
# File Created: 21.03.2021 16:42:49

mtllib SM_GaurdRail_01.mtl

#
# object SM_GaurdRail_01
#

v  -8.4209 -37.5000 -3.1713
v  14.7289 -37.5000 -3.1713
v  14.7289 37.5000 -3.1713
v  -8.4209 37.5000 -3.1713
v  18.1501 -37.5000 5.0114
v  18.1501 -37.5000 -3.1713
v  18.1501 37.5000 -3.1713
v  18.1501 37.5000 5.0114
v  -8.4209 -37.5000 5.0114
v  -11.8421 -37.5000 5.0114
v  -11.8421 -37.5000 -3.1713
v  14.7289 37.5000 5.0114
v  14.7289 -37.5000 5.0114
v  -8.4209 37.5000 5.0114
v  -11.8421 37.5000 5.0114
v  -8.4209 -37.5000 -5.0112
v  14.7289 -37.5000 -5.0112
v  14.7289 37.5000 -5.0112
v  -8.4209 37.5000 -5.0112
v  -11.8421 37.5000 -3.1713
v  -11.8421 -37.5000 -5.0112
v  18.1501 -37.5000 -5.0112
v  18.1501 37.5000 -5.0112
v  -11.8421 37.5000 -5.0112
v  -8.4209 -37.5000 -6.8512
v  -8.4209 37.5000 -6.8512
v  14.7289 37.5000 -6.8512
v  14.7289 -37.5000 -6.8512
v  18.1501 -37.5000 -15.0339
v  18.1501 37.5000 -15.0339
v  18.1501 37.5000 -6.8512
v  18.1501 -37.5000 -6.8512
v  -8.4209 -37.5000 -15.0339
v  -11.8421 -37.5000 -6.8512
v  -11.8421 -37.5000 -15.0339
v  14.7289 37.5000 -15.0339
v  14.7289 -37.5000 -15.0339
v  -8.4209 37.5000 -15.0339
v  -11.8421 37.5000 -15.0339
v  -11.8421 37.5000 -6.8512
v  -8.4209 -37.5000 196.8288
v  14.7289 -37.5000 196.8288
v  14.7289 37.5000 196.8288
v  -8.4209 37.5000 196.8288
v  18.1501 -37.5000 205.0115
v  18.1501 -37.5000 196.8288
v  18.1501 37.5000 196.8288
v  18.1501 37.5000 205.0115
v  -8.4209 -37.5000 205.0115
v  -11.8421 -37.5000 205.0115
v  -11.8421 -37.5000 196.8288
v  14.7289 37.5000 205.0115
v  14.7289 -37.5000 205.0115
v  -8.4209 37.5000 205.0115
v  -11.8421 37.5000 205.0115
v  -8.4209 -37.5000 194.9888
v  14.7289 -37.5000 194.9888
v  14.7289 37.5000 194.9888
v  -8.4209 37.5000 194.9888
v  -11.8421 37.5000 196.8288
v  -11.8421 -37.5000 194.9888
v  18.1501 -37.5000 194.9888
v  18.1501 37.5000 194.9888
v  -11.8421 37.5000 194.9888
v  -8.4209 -37.5000 193.1489
v  -8.4209 37.5000 193.1489
v  14.7289 37.5000 193.1489
v  14.7289 -37.5000 193.1489
v  18.1501 -37.5000 184.9661
v  18.1501 37.5000 184.9661
v  18.1501 37.5000 193.1489
v  18.1501 -37.5000 193.1489
v  -8.4209 -37.5000 184.9661
v  -11.8421 -37.5000 193.1489
v  -11.8421 -37.5000 184.9661
v  14.7289 37.5000 184.9661
v  14.7289 -37.5000 184.9661
v  -8.4209 37.5000 184.9661
v  -11.8421 37.5000 184.9661
v  -11.8421 37.5000 193.1489
v  -18.1501 16.0929 194.9888
v  -18.1501 16.0929 -205.0112
v  -13.3183 13.2291 -205.0112
v  -13.3183 13.2291 194.9888
v  -18.1501 27.5481 194.9888
v  -13.3183 30.4120 194.9888
v  -13.3183 30.4120 -205.0112
v  -18.1501 27.5481 -205.0112
v  -13.6366 20.5063 194.9890
v  -13.6366 23.1348 194.9885
v  -13.6366 23.1348 -205.0115
v  -13.6366 20.5063 -205.0110
v  -13.2447 10.3497 -205.0112
v  -13.2447 10.3497 194.9888
v  -13.2447 33.2914 194.9888
v  -13.2447 33.2914 -205.0112
v  -16.7552 16.0929 -205.0112
v  -11.9234 13.2291 -205.0112
v  -11.8498 10.3497 -205.0112
v  -11.8498 10.3497 194.9888
v  -11.9234 13.2291 194.9888
v  -16.7552 16.0929 194.9888
v  -12.2417 20.5063 194.9890
v  -12.2417 23.1348 194.9885
v  -16.7552 27.5481 194.9888
v  -11.9234 30.4120 194.9888
v  -11.8498 33.2914 194.9888
v  -11.8498 33.2914 -205.0112
v  -11.9234 30.4120 -205.0112
v  -16.7552 27.5481 -205.0112
v  -12.2417 23.1348 -205.0115
v  -12.2417 20.5063 -205.0110
# 112 vertices

vn 0.3015 -0.9045 0.3015
vn -0.3015 -0.9045 0.3015
vn -0.3015 0.9045 0.3015
vn 0.3015 0.9045 0.3015
vn 0.5774 -0.5774 0.5774
vn 0.7071 -0.7071 -0.0000
vn 0.7071 0.7071 -0.0000
vn 0.5774 0.5774 0.5774
vn -0.5774 -0.5774 0.5774
vn -0.7071 -0.7071 -0.0000
vn -0.5774 0.5774 0.5774
vn 0.0000 -1.0000 -0.0000
vn 0.0000 1.0000 -0.0000
vn -0.7071 0.7071 -0.0000
vn 0.3015 -0.9045 -0.3015
vn 0.3015 0.9045 -0.3015
vn -0.3015 0.9045 -0.3015
vn -0.3015 -0.9045 -0.3015
vn 0.5774 -0.5774 -0.5774
vn 0.5774 0.5774 -0.5774
vn -0.5774 -0.5774 -0.5774
vn -0.5774 0.5774 -0.5774
vn -0.8194 -0.0983 0.5648
vn -0.8193 -0.0985 -0.5649
vn -0.4762 -0.2794 -0.8338
vn -0.4762 -0.2794 0.8338
vn -0.8193 0.0985 0.5649
vn -0.4762 0.2794 0.8338
vn -0.4762 0.2794 -0.8338
vn -0.8194 0.0983 -0.5648
vn -0.5460 0.2298 0.8057
vn -0.5460 -0.2298 0.8056
vn -0.5460 -0.2298 -0.8057
vn -0.5460 0.2298 -0.8056
vn -0.5693 -0.5840 -0.5787
vn -0.5693 -0.5840 0.5787
vn -0.5693 0.5840 0.5787
vn -0.5693 0.5840 -0.5787
vn 0.3563 0.0429 -0.9334
vn 0.6816 0.4000 -0.6127
vn 0.5854 -0.5706 -0.5760
vn 0.5854 -0.5706 0.5760
vn 0.6816 0.4000 0.6127
vn 0.3564 0.0427 0.9334
vn 0.7163 -0.3013 0.6294
vn 0.7163 0.3015 0.6293
vn 0.3563 -0.0429 0.9334
vn 0.6816 -0.4000 0.6127
vn 0.5854 0.5706 0.5760
vn 0.5854 0.5706 -0.5760
vn 0.6816 -0.4000 -0.6127
vn 0.3564 -0.0427 -0.9334
vn 0.7163 0.3013 -0.6294
vn 0.7163 -0.3015 -0.6293
# 54 vertex normals

vt 0.0684 0.0000 0.0000
vt 0.9316 0.0000 0.0000
vt 0.9316 1.0000 0.0000
vt 0.0684 1.0000 0.0000
vt 0.0000 0.0000 0.0000
vt 0.3759 0.0000 0.0000
vt 0.3759 1.0000 0.0000
vt 0.0000 1.0000 0.0000
vt 1.0000 0.0000 0.0000
vt 1.0000 0.3905 0.0000
vt 0.9316 0.3906 0.0000
vt 1.0000 0.3759 0.0000
vt 1.0000 1.0000 0.0000
vt 0.0684 0.3906 0.0000
vt 0.9316 0.4572 0.0000
vt 0.0684 0.4572 0.0000
vt 0.6095 0.0000 0.0000
vt 0.6095 1.0000 0.0000
vt 1.0000 0.4571 0.0000
vt 0.0000 0.3905 0.0000
vt 0.4440 0.0000 0.0000
vt 0.4440 1.0000 0.0000
vt 0.0000 0.3759 0.0000
vt 1.0000 0.4440 0.0000
vt 0.5429 0.0000 0.0000
vt 0.5429 1.0000 0.0000
vt 0.0000 0.4440 0.0000
vt 0.0000 0.4571 0.0000
vt 1.0000 0.3333 0.0000
vt 1.0000 0.6667 0.0000
vt 0.0000 0.6667 0.0000
vt 0.0000 0.3333 0.0000
vt 1.0000 0.8333 0.0000
vt 0.0000 0.8333 0.0000
vt 0.0000 0.1667 0.0000
vt 1.0000 0.1667 0.0000
# 36 texture coords

o SM_GaurdRail_01
g SM_GaurdRail_01
usemtl wire_213154229
s 8
f 1/1/1 2/2/2 3/3/3 4/4/4 
s 16
f 5/5/5 6/6/6 7/7/7 8/8/8 
s 2
f 9/2/5 10/9/9 11/10/10 1/11/1 
s 4
f 12/2/11 8/9/8 7/12/7 3/11/3 
s 8
f 13/2/9 5/9/5 8/13/8 12/3/11 
f 14/4/8 15/8/11 10/5/9 9/1/5 
s off
f 13/2/9 12/3/11 3/3/3 2/2/2 
f 14/4/8 9/1/5 1/1/1 4/4/4 
s 2
f 2/14/2 1/11/1 16/15/12 17/16/12 
s 4
f 4/14/4 3/11/3 18/15/13 19/16/13 
s 64
f 11/17/10 10/9/9 15/13/11 20/18/14 
s 2
f 11/10/10 21/19/10 16/15/12 1/11/1 
s 4
f 20/20/14 15/5/11 14/1/8 4/14/4 
s 16
f 6/6/6 22/21/6 23/22/7 7/7/7 
s 2
f 6/23/6 5/5/5 13/1/9 2/14/2 
s 4
f 7/12/7 23/24/7 18/15/13 3/11/3 
s 64
f 21/25/10 11/17/10 20/18/14 24/26/14 
s 2
f 22/27/6 6/23/6 2/14/2 17/16/12 
s 4
f 24/28/14 20/20/14 4/14/4 19/16/13 
s 8
f 25/1/15 26/4/16 27/3/17 28/2/18 
s 16
f 29/5/19 30/8/20 31/7/7 32/6/6 
s 2
f 33/2/19 25/11/15 34/10/10 35/9/21 
s 4
f 36/2/22 27/11/17 31/12/7 30/9/20 
s 8
f 37/2/21 36/3/22 30/13/20 29/9/19 
f 38/4/20 33/1/19 35/5/21 39/8/22 
s off
f 37/2/21 28/2/18 27/3/17 36/3/22 
f 38/4/20 26/4/16 25/1/15 33/1/19 
s 2
f 28/14/18 17/16/12 16/15/12 25/11/15 
s 4
f 26/14/16 19/16/13 18/15/13 27/11/17 
s 64
f 34/17/10 40/18/14 39/13/22 35/9/21 
s 2
f 34/10/10 25/11/15 16/15/12 21/19/10 
s 4
f 40/20/14 26/14/16 38/1/20 39/5/22 
s 16
f 32/6/6 31/7/7 23/22/7 22/21/6 
s 2
f 32/23/6 28/14/18 37/1/21 29/5/19 
s 4
f 31/12/7 27/11/17 18/15/13 23/24/7 
s 64
f 21/25/10 24/26/14 40/18/14 34/17/10 
s 2
f 22/27/6 17/16/12 28/14/18 32/23/6 
s 4
f 24/28/14 19/16/13 26/14/16 40/20/14 
s 8
f 41/1/1 42/2/2 43/3/3 44/4/4 
s 16
f 45/5/5 46/6/6 47/7/7 48/8/8 
s 2
f 49/2/5 50/9/9 51/10/10 41/11/1 
s 4
f 52/2/11 48/9/8 47/12/7 43/11/3 
s 8
f 53/2/9 45/9/5 48/13/8 52/3/11 
f 54/4/8 55/8/11 50/5/9 49/1/5 
s off
f 53/2/9 52/3/11 43/3/3 42/2/2 
f 54/4/8 49/1/5 41/1/1 44/4/4 
s 2
f 42/14/2 41/11/1 56/15/12 57/16/12 
s 4
f 44/14/4 43/11/3 58/15/13 59/16/13 
s 64
f 51/17/10 50/9/9 55/13/11 60/18/14 
s 2
f 51/10/10 61/19/10 56/15/12 41/11/1 
s 4
f 60/20/14 55/5/11 54/1/8 44/14/4 
s 16
f 46/6/6 62/21/6 63/22/7 47/7/7 
s 2
f 46/23/6 45/5/5 53/1/9 42/14/2 
s 4
f 47/12/7 63/24/7 58/15/13 43/11/3 
s 64
f 61/25/10 51/17/10 60/18/14 64/26/14 
s 2
f 62/27/6 46/23/6 42/14/2 57/16/12 
s 4
f 64/28/14 60/20/14 44/14/4 59/16/13 
s 8
f 65/1/15 66/4/16 67/3/17 68/2/18 
s 16
f 69/5/19 70/8/20 71/7/7 72/6/6 
s 2
f 73/2/19 65/11/15 74/10/10 75/9/21 
s 4
f 76/2/22 67/11/17 71/12/7 70/9/20 
s 8
f 77/2/21 76/3/22 70/13/20 69/9/19 
f 78/4/20 73/1/19 75/5/21 79/8/22 
s off
f 77/2/21 68/2/18 67/3/17 76/3/22 
f 78/4/20 66/4/16 65/1/15 73/1/19 
s 2
f 68/14/18 57/16/12 56/15/12 65/11/15 
s 4
f 66/14/16 59/16/13 58/15/13 67/11/17 
s 64
f 74/17/10 80/18/14 79/13/22 75/9/21 
s 2
f 74/10/10 65/11/15 56/15/12 61/19/10 
s 4
f 80/20/14 66/14/16 78/1/20 79/5/22 
s 16
f 72/6/6 71/7/7 63/22/7 62/21/6 
s 2
f 72/23/6 68/14/18 77/1/21 69/5/19 
s 4
f 71/12/7 67/11/17 58/15/13 63/24/7 
s 64
f 61/25/10 64/26/14 80/18/14 74/17/10 
s 2
f 62/27/6 57/16/12 68/14/18 72/23/6 
s 4
f 64/28/14 59/16/13 66/14/16 80/20/14 
s 2
f 81/9/23 82/13/24 83/8/25 84/5/26 
s 4
f 85/5/27 86/9/28 87/13/29 88/8/30 
s 64
f 89/29/31 90/30/32 91/31/33 92/32/34 
s off
f 84/5/26 83/8/25 93/8/35 94/5/36 
f 87/13/29 86/9/28 95/9/37 96/13/38 
f 85/33/27 88/34/30 91/31/33 90/30/32 
f 82/35/24 81/36/23 89/29/31 92/32/34 
f 83/8/25 82/13/24 97/13/39 98/8/40 
f 93/8/35 83/8/25 98/8/40 99/8/41 
f 94/5/36 93/8/35 99/8/41 100/5/42 
f 84/5/26 94/5/36 100/5/42 101/5/43 
f 81/9/23 84/5/26 101/5/43 102/9/44 
f 89/29/31 81/36/23 102/36/44 103/29/45 
f 90/30/32 89/29/31 103/29/45 104/30/46 
f 85/33/27 90/30/32 104/30/46 105/33/47 
f 86/9/28 85/5/27 105/5/47 106/9/48 
f 95/9/37 86/9/28 106/9/48 107/9/49 
f 96/13/38 95/9/37 107/9/49 108/13/50 
f 87/13/29 96/13/38 108/13/50 109/13/51 
f 88/8/30 87/13/29 109/13/51 110/8/52 
f 91/31/33 88/34/30 110/34/52 111/31/53 
f 92/32/34 91/31/33 111/31/53 112/32/54 
f 82/35/24 92/32/34 112/32/54 97/35/39 
f 97/13/39 102/36/44 101/5/43 98/8/40 
f 110/34/52 109/13/51 106/9/48 105/5/47 
f 109/13/51 108/13/50 107/9/49 106/9/48 
f 111/31/53 110/34/52 105/5/47 104/30/46 
f 112/32/54 111/31/53 104/30/46 103/29/45 
f 97/13/39 112/32/54 103/29/45 102/36/44 
f 101/5/43 100/5/42 99/8/41 98/8/40 
# 106 polygons

